<mxfile host="app.diagrams.net" modified="2023-09-17T20:49:38.638Z" agent="Mozilla/5.0 (Macintosh; Intel Mac OS X 10.15; rv:109.0) Gecko/20100101 Firefox/117.0" etag="_y8JL9khj8JC8dGgtlI8" version="21.7.4" type="device">
  <diagram name="Page-1" id="rN0-owpkrbHSYkm-a-Uw">
    <mxGraphModel dx="1314" dy="839" grid="1" gridSize="10" guides="1" tooltips="1" connect="1" arrows="1" fold="1" page="1" pageScale="1" pageWidth="850" pageHeight="1100" math="0" shadow="0">
      <root>
        <mxCell id="0" />
        <mxCell id="1" parent="0" />
      </root>
    </mxGraphModel>
  </diagram>
</mxfile>
